<?xml version="1.0" encoding="utf-8"?>
<!-- Generator: Adobe Illustrator 24.1.1, SVG Export Plug-In . SVG Version: 6.00 Build 0)  -->
<svg version="1.1" id="Layer_1" xmlns="http://www.w3.org/2000/svg" xmlns:xlink="http://www.w3.org/1999/xlink" x="0px" y="0px"
	 viewBox="0 0 512 512" style="enable-background:new 0 0 512 512;" xml:space="preserve">
<g>
	<path d="M15.98,511.84c-8.85-0.02-16-7.23-15.98-16.04c0.08-25.17,5.19-49.63,15.21-72.74c12.49-24.53,49.52-37.86,100.74-56.32
		l11.11-4.01l0.47-1.34c2.46-8,0.83-19.34-0.25-22.53c-22.41-24.12-33.58-56.72-30.77-89.7c-2.73-43.68,28.94-82.56,72.34-88.69
		l2.24-0.15c7.92,0,14.72,5.91,15.85,13.76c0.59,4.24-0.49,8.45-3.05,11.85c-2.56,3.42-6.31,5.64-10.56,6.23
		c-27.3,3.86-46.97,28.4-44.8,55.9l-0.02,2.79c-2.39,24.65,5.98,49.07,22.98,67.05c10.16,10.95,10.86,35.99,7.49,49.87
		c-3.84,15.81-12.56,22-19.22,24.41l-12.91,4.68c-37.55,13.52-76.37,27.5-82.69,39.85c-7.92,18.31-12.08,38.4-12.15,59.19
		c-0.02,8.79-7.21,15.96-16,15.96h-0.04V511.84z"/>
	<path d="M342.44,511.84c-8.73,0-15.92-7.1-16-15.81c-0.24-20.85-4.57-41.12-12.89-60.23c-5.86-11.46-44.63-25.42-82.13-38.92
		l-13.03-4.7c-6.66-2.43-15.39-8.64-19.21-24.47c-3.34-13.89-2.69-38.89,7.34-49.68c11.34-11.46,18.52-25.6,20.89-41.09
		c1.2-7.87,7.85-13.56,15.83-13.56l2.36,0.17c4.24,0.64,7.98,2.87,10.5,6.33c2.53,3.44,3.58,7.69,2.92,11.91
		c-3.32,21.76-13.11,41.56-28.4,57.34c-1.04,3.5-2.41,14.49-0.02,22.27l0.49,1.36l11.14,4.01c51.21,18.46,88.2,31.77,100.25,55.38
		c10.39,23.78,15.68,48.36,15.96,73.53c0.08,8.83-7,16.08-15.83,16.17h-0.08h-0.08V511.84z"/>
	<path d="M413.18,511.84c-8.83,0-16-7.17-16-16c0-8.83,7.17-16,16-16h34.52v-1.42c0-45.59-25.77-54.81-64.75-68.76
		c-3.42-1.22-6.82-2.46-10.26-3.72c-6.59-2.45-15.23-8.66-19.07-24.45c-3.44-14.11-2.83-39.55,7.21-50.57
		c12.07-12.49,19.67-28.55,21.53-45.41c0.9-8.12,7.74-14.25,15.89-14.25l1.73,0.09c8.81,0.98,15.15,8.9,14.19,17.66
		c-2.58,23.41-12.89,45.63-29.01,62.76c-1.07,3.59-2.54,15.34-0.1,23.32l0.53,1.47c2.41,0.88,8.17,2.95,8.17,2.95
		c40.3,14.42,85.98,30.74,85.98,98.88v17.42c0,8.83-7.17,16-16,16h-50.54V511.84z"/>
	<path d="M495.99,304.14c-4.26,0-8.29-1.66-11.3-4.69l-70.25-70.25c-22.43,17.43-49.99,26.94-78.43,26.94
		c-70.56,0-128-57.43-128-128c0-70.56,57.44-128,128-128c70.57,0,128,57.44,128,128c0,28.46-9.51,56.02-26.94,78.45l70.25,70.25
		c6.23,6.23,6.23,16.39,0,22.64C504.3,302.48,500.29,304.14,495.99,304.14z M336,32.14c-52.93,0-96,43.07-96,96s43.07,96,96,96
		s96-43.07,96-96S388.94,32.14,336,32.14z"/>
</g>
</svg>
